HIERARCHY
ROOT Hips
{
	OFFSET -0.001795 -0.223333 0.028219
	CHANNELS 6 Xposition Yposition Zposition Zrotation Yrotation Xrotation 
	JOINT LeftUpLeg
	{
		OFFSET 0.069520 -0.091406 -0.006815
		CHANNELS 3 Zrotation Yrotation Xrotation
		JOINT LeftLeg
		{
			OFFSET 0.034277 -0.375199 -0.004496
			CHANNELS 3 Zrotation Yrotation Xrotation
			JOINT LeftFoot
			{
				OFFSET -0.013596 -0.397961 -0.043693
				CHANNELS 3 Zrotation Yrotation Xrotation
				JOINT LeftToe
				{
					OFFSET 0.026358 -0.055791 0.119288
					CHANNELS 3 Zrotation Yrotation Xrotation
					End Site
					{
						OFFSET 0.000000 0.000000 0.000000
					}
				}
			}
		}
	}
	JOINT RightUpLeg
	{
		OFFSET -0.067670 -0.090522 -0.004320
		CHANNELS 3 Zrotation Yrotation Xrotation
		JOINT RightLeg
		{
			OFFSET -0.038290 -0.382569 -0.008850
			CHANNELS 3 Zrotation Yrotation Xrotation
			JOINT RightFoot
			{
				OFFSET 0.015774 -0.398415 -0.042312
				CHANNELS 3 Zrotation Yrotation Xrotation
				JOINT RightToe
				{
					OFFSET -0.025372 -0.048144 0.123348
					CHANNELS 3 Zrotation Yrotation Xrotation
					End Site
					{
						OFFSET 0.000000 0.000000 0.000000
					}
				}
			}
		}
	}
	JOINT Spine
	{
		OFFSET -0.002533 0.108963 -0.026696
		CHANNELS 3 Zrotation Yrotation Xrotation
		JOINT Spine1
		{
			OFFSET 0.005487 0.135180 0.001092
			CHANNELS 3 Zrotation Yrotation Xrotation
			JOINT Spine2
			{
				OFFSET 0.001457 0.052922 0.025425
				CHANNELS 3 Zrotation Yrotation Xrotation
				JOINT Neck
				{
					OFFSET -0.002778 0.213870 -0.042857
					CHANNELS 3 Zrotation Yrotation Xrotation
					JOINT Head
					{
						OFFSET 0.005152 0.064970 0.051349
						CHANNELS 3 Zrotation Yrotation Xrotation
						End Site
						{
							OFFSET 0.000000 0.000000 0.000000
						}
					}
				}
				JOINT LeftShoulder
				{
					OFFSET 0.078845 0.121749 -0.034090
					CHANNELS 3 Zrotation Yrotation Xrotation
					JOINT LeftArm
					{
						OFFSET 0.090977 0.030469 -0.008868
						CHANNELS 3 Zrotation Yrotation Xrotation
						JOINT LeftForeArm
						{
							OFFSET 0.259612 -0.012772 -0.027456
							CHANNELS 3 Zrotation Yrotation Xrotation
							JOINT LeftHand
							{
								OFFSET 0.249234 0.008986 -0.001171
								CHANNELS 3 Zrotation Yrotation Xrotation
								End Site
								{
									OFFSET 0.000000 0.000000 0.000000
								}
							}
						}
					}
				}
				JOINT RightShoulder
				{
					OFFSET -0.081759 0.118833 -0.038615
					CHANNELS 3 Zrotation Yrotation Xrotation
					JOINT RightArm
					{
						OFFSET -0.096012 0.032551 -0.009143
						CHANNELS 3 Zrotation Yrotation Xrotation
						JOINT RightForeArm
						{
							OFFSET -0.253742 -0.013329 -0.021401
							CHANNELS 3 Zrotation Yrotation Xrotation
							JOINT RightHand
							{
								OFFSET -0.255298 0.007772 -0.005559
								CHANNELS 3 Zrotation Yrotation Xrotation
								End Site
								{
									OFFSET 0.000000 0.000000 0.000000
								}
							}
						}
					}
				}
			}
		}
	}
}
MOTION
Frames: 6
Frame Time: 0.050000
0.000000 0.949852 0.000000 -0.730419 1.846817 -0.011744 0.885826 0.165506 2.196762 0.437363 -0.019807 -0.693160 -1.352815 -0.863453 3.850409 0.000000 0.000000 0.000000 2.396084 -0.085063 0.298097 -0.308553 0.096556 1.510485 1.337720 1.264724 4.061289 0.000000 0.000000 0.000000 1.301861 0.023017 -0.646656 -0.806579 0.411082 -0.947658 -1.491744 0.699550 6.938075 4.576029 -1.399472 -16.645635 0.000000 0.000000 0.000000 -27.170993 -1.552603 -2.416707 -47.373209 -4.528682 -3.877358 -6.105806 -18.056133 1.594436 0.000000 0.000000 0.000000 26.487119 -1.946218 -3.006544 54.326261 6.181966 -2.945607 2.566769 18.354638 1.055502 0.000000 0.000000 0.000000 
0.000590 0.949207 0.000532 -0.898611 1.625319 0.702174 1.388179 0.133250 2.026081 0.089155 0.046768 -1.601805 -1.572073 -1.580129 3.314335 0.000000 0.000000 0.000000 2.173448 0.018277 -0.554055 0.345106 0.030981 1.923618 1.538334 2.273651 3.003418 0.000000 0.000000 0.000000 1.385199 0.083899 -1.890427 -1.109594 0.523528 0.351477 -1.418314 0.548370 6.323426 4.394910 -1.238626 -17.217736 0.000000 0.000000 0.000000 -27.340968 -0.607528 -2.942533 -47.389492 -4.607031 -3.823946 -5.966459 -18.773948 1.643819 0.000000 0.000000 0.000000 26.296910 -2.041568 -3.185175 54.916000 6.075732 -2.906239 2.736230 19.322937 1.129394 0.000000 0.000000 0.000000 
0.000839 0.949029 0.000916 -0.727369 1.745615 0.950731 1.241892 0.127292 1.899046 0.284070 0.014767 -1.215201 -1.919125 -2.638706 2.622419 0.000000 0.000000 0.000000 2.420729 0.054463 -0.893722 -0.122546 0.096677 2.094614 1.202264 1.828361 2.314726 0.000000 0.000000 0.000000 1.414988 0.083400 -1.903876 -1.017897 0.521384 -1.548279 -1.642993 0.423692 7.731716 3.706298 -0.938892 -16.449963 0.000000 0.000000 0.000000 -26.169624 -0.783613 -2.614007 -48.026746 -4.339165 -4.120971 -5.687516 -18.430760 1.580436 0.000000 0.000000 0.000000 26.430004 -1.172693 -2.606221 54.095476 5.919368 -3.083341 2.704066 19.015457 1.111296 0.000000 0.000000 0.000000 
0.000728 0.949116 0.001555 -0.761852 2.221917 1.079089 1.435681 0.127314 2.022005 0.133826 0.033106 -1.323034 -2.160868 -3.345117 2.207526 0.000000 0.000000 0.000000 2.417582 0.120490 -1.420947 0.238196 0.073263 2.755075 1.388884 2.538835 1.876213 0.000000 0.000000 0.000000 1.031236 0.072230 -1.729765 -1.122788 0.558971 -0.987281 -1.133292 -0.307069 6.934812 3.607041 -0.967394 -16.088668 0.000000 0.000000 0.000000 -26.325453 0.182428 -3.062011 -48.030973 -4.425839 -4.069240 -6.429813 -18.236035 1.690621 0.000000 0.000000 0.000000 26.355030 -1.008801 -2.728997 53.991271 5.763720 -3.014670 3.355665 19.178776 1.193318 0.000000 0.000000 0.000000 
0.000328 0.949386 0.002352 -0.704016 2.578602 1.028668 1.358507 0.132143 2.066364 0.428944 -0.008539 -0.943725 -1.804238 -2.815508 1.817279 0.000000 0.000000 0.000000 2.550194 0.129016 -1.484499 0.025910 0.105334 2.867505 1.189719 2.267896 1.477461 0.000000 0.000000 0.000000 0.816582 0.060192 -1.487544 -0.740368 0.373175 -0.696568 -1.408037 -0.535579 6.468963 3.219789 -0.782420 -15.511593 0.000000 0.000000 0.000000 -25.973072 0.249105 -3.079693 -47.859446 -4.238889 -4.084812 -6.705045 -18.043854 1.710079 0.000000 0.000000 0.000000 25.923212 -0.651923 -2.475853 54.028100 5.984120 -2.868974 3.282099 19.138210 1.174111 0.000000 0.000000 0.000000 
-0.000416 0.949526 0.003850 -0.589820 2.883988 1.040126 1.340316 0.156291 2.392783 0.365394 0.002846 -1.077522 -1.807844 -2.966087 1.548076 0.000000 0.000000 0.000000 2.707548 0.133696 -1.522604 -0.013719 0.118002 3.080057 1.128008 2.410996 0.930736 0.000000 0.000000 0.000000 0.308142 0.038071 -0.983294 -0.592368 0.308577 -0.844326 -1.176948 -0.868659 6.098600 3.008774 -0.671869 -15.496919 0.000000 0.000000 0.000000 -26.295268 0.921998 -3.474640 -47.491971 -4.028836 -4.120222 -6.568462 -18.018153 1.690257 0.000000 0.000000 0.000000 25.903091 -0.672616 -2.580126 54.029774 5.976681 -2.814627 3.396045 19.098539 1.177180 0.000000 0.000000 0.000000 
